<svg width="30" height="32" viewBox="0 0 30 32" fill="none" xmlns="http://www.w3.org/2000/svg">
<path fill-rule="evenodd" clip-rule="evenodd" d="M8.12136 0C8.56776 0 8.96002 0.194641 9.23602 0.492018L9.28963 0.552882L9.34653 0.620837L9.44781 0.838064C9.46692 0.869626 9.48612 0.902906 9.50422 0.938348C9.51425 0.957131 9.52137 0.971333 9.52335 0.97546C9.52674 0.982496 9.52954 0.988653 9.5316 0.993109L9.90684 1.79291L9.92234 1.82606L9.93422 1.8607C9.93539 1.86411 9.93942 1.87412 9.94956 1.89138L9.9738 1.93278C10.0165 1.98919 10.0703 2.00931 10.111 2.00931H10.146L15.4253 0.676257L15.6522 0.618528L15.6557 0.617538L15.6593 0.616714C16.4154 0.432992 17.2035 0.337804 18.01 0.337799C20.1287 0.337799 22.1004 0.994732 23.7741 2.12493C24.093 2.33939 24.4003 2.57238 24.6941 2.819L24.8193 2.92555L24.8208 2.92687C25.1905 3.24811 25.5418 3.59256 25.8713 3.96353C26.8332 5.03649 27.6047 6.30319 28.1467 7.69911L28.1984 7.83469L28.1988 7.83568C28.6464 9.0343 28.9261 10.3292 28.9994 11.6842C29.0162 11.9348 29.023 12.1861 29.023 12.4337C29.023 12.5676 29.0232 12.7203 29.0161 12.8721C28.986 13.7946 28.8643 14.688 28.654 15.5478L28.6542 15.548C28.3174 16.9523 27.7525 18.2527 27.0089 19.4094L27.0091 19.4096C26.8995 19.5802 26.7838 19.7504 26.665 19.9164L26.6645 19.9171C25.6515 21.3289 24.3526 22.4935 22.8596 23.2971C22.0498 23.7326 21.1871 24.0648 20.279 24.274C20.2725 24.2757 20.2647 24.2782 20.2559 24.2803C20.2452 24.2828 20.2331 24.2854 20.2198 24.2879C20.2004 24.292 20.1847 24.2948 20.1737 24.2964C20.1716 24.2968 20.1694 24.2968 20.1673 24.2971C20.0759 24.3135 19.9931 24.3177 19.9232 24.3177C19.3093 24.3177 18.7999 23.9501 18.5479 23.4508L18.522 23.3993L18.5186 23.3884L18.333 22.9924L18.2081 22.7321C18.1938 22.7037 18.1759 22.6792 18.1565 22.6592L18.0769 22.5774L18.0531 22.5263C18.0524 22.5262 18.0518 22.5261 18.0511 22.526L18.0274 22.5238C18.0187 22.5238 18.0116 22.524 18.0058 22.5242C18.0016 22.5243 17.9985 22.5245 17.9962 22.5246L17.9888 22.5266L17.9752 22.5316L17.954 22.5378L15.435 23.2723L8.34996 25.3468V29.5681L0 32V2.32319L7.47281 0.131458L7.65424 0.0766975L7.6582 0.0755429L7.66199 0.0743883L7.76822 0.0437093L7.79774 0.0351324L7.82776 0.0293595C7.91107 0.0132835 8.01151 1.05897e-05 8.12136 0ZM16.0908 6.82443C14.9999 6.82443 13.9902 7.22101 13.1775 7.8944C13.0712 7.98324 12.9461 8.04816 12.8086 8.0755C12.7555 8.08575 12.7024 8.09265 12.643 8.09266C12.5837 8.09266 12.5304 8.08576 12.4773 8.0755C12.2741 8.03448 12.0959 7.91475 11.9678 7.74727C11.9522 7.71995 11.9334 7.69262 11.9115 7.66529V7.66183C11.8804 7.62193 11.8464 7.58494 11.8099 7.55116L11.7563 7.43636C11.6089 7.31604 11.4264 7.24552 11.2285 7.24552C11.1691 7.24552 11.1098 7.24884 11.0535 7.26251C11.0222 7.26935 10.9941 7.27617 10.9659 7.28643L8.5403 7.99749L8.44332 8.02487L7.67437 8.2505V18.8094L15.2765 16.5807C15.3109 16.567 15.3485 16.5568 15.3829 16.55C15.436 16.5397 15.4922 16.5328 15.5485 16.5328C15.7797 16.5328 15.9875 16.6283 16.1449 16.7855L16.2076 16.92C16.2304 16.9466 16.2521 16.9745 16.2721 17.0039C16.2752 17.0142 16.2815 17.0245 16.2877 17.0313C16.3034 17.0586 16.319 17.0859 16.3346 17.1133L16.3128 17.0654C16.4691 17.3047 16.7285 17.4587 17.0193 17.4587C17.0755 17.4587 17.1317 17.4517 17.1849 17.4415H17.1911C17.1974 17.4449 17.2037 17.4415 17.2068 17.438C17.2318 17.4312 17.2568 17.4244 17.2818 17.4176C18.3946 17.1134 19.3511 16.3783 20.0106 15.3905C20.0387 15.3426 20.0701 15.2983 20.0982 15.2504H20.1013C20.6421 14.3856 20.961 13.3362 20.961 12.2013C20.961 12.0441 20.9547 11.8869 20.9422 11.7331C20.8297 10.2667 20.1795 8.96766 19.2136 8.0755C18.3665 7.29272 17.2786 6.82443 16.0908 6.82443Z" fill="url(#paint0_linear_2036_1758)"/>
<mask id="mask0_2036_1758" style="mask-type:alpha" maskUnits="userSpaceOnUse" x="0" y="0" width="30" height="32">
<path fill-rule="evenodd" clip-rule="evenodd" d="M8.12142 0C8.56782 0 8.96008 0.194641 9.23609 0.492018L9.28969 0.552882L9.3466 0.620837L9.44787 0.838064C9.46698 0.869626 9.48618 0.902906 9.50428 0.938348C9.51431 0.957131 9.52143 0.971333 9.52341 0.97546C9.5268 0.982496 9.5296 0.988653 9.53166 0.993109L9.9069 1.79291L9.9224 1.82606L9.93428 1.8607C9.93545 1.86411 9.93948 1.87412 9.94962 1.89138L9.97387 1.93278C10.0165 1.98919 10.0704 2.00931 10.1111 2.00931H10.1461L15.4253 0.676257L15.6523 0.618528L15.6557 0.617538L15.6594 0.616714C16.4154 0.432992 17.2036 0.337804 18.0101 0.337799C20.1288 0.337799 22.1005 0.994732 23.7741 2.12493C24.0931 2.33939 24.4004 2.57238 24.6942 2.819L24.8194 2.92555L24.8208 2.92687C25.1905 3.24811 25.5419 3.59256 25.8714 3.96353C26.8332 5.03649 27.6048 6.30319 28.1467 7.69911L28.1985 7.83469L28.1988 7.83568C28.6465 9.0343 28.9262 10.3292 28.9995 11.6842C29.0163 11.9348 29.023 12.1861 29.023 12.4337C29.023 12.5676 29.0232 12.7203 29.0161 12.8721C28.986 13.7946 28.8644 14.688 28.6541 15.5478L28.6542 15.548C28.3175 16.9523 27.7526 18.2527 27.009 19.4094L27.0091 19.4096C26.8996 19.5802 26.7839 19.7504 26.665 19.9164L26.6646 19.9171C25.6516 21.3289 24.3527 22.4935 22.8597 23.2971C22.0499 23.7326 21.1872 24.0648 20.279 24.274C20.2726 24.2757 20.2647 24.2782 20.2559 24.2803C20.2452 24.2828 20.2331 24.2854 20.2198 24.2879C20.2005 24.292 20.1848 24.2948 20.1738 24.2964C20.1716 24.2968 20.1695 24.2968 20.1674 24.2971C20.076 24.3135 19.9931 24.3177 19.9233 24.3177C19.3093 24.3177 18.7999 23.9501 18.548 23.4508L18.5221 23.3993L18.5186 23.3884L18.3331 22.9924L18.2082 22.7321C18.1938 22.7037 18.176 22.6792 18.1566 22.6592L18.0769 22.5774L18.0532 22.5263C18.0525 22.5262 18.0518 22.5261 18.0512 22.526L18.0274 22.5238C18.0188 22.5238 18.0116 22.524 18.0058 22.5242C18.0017 22.5243 17.9986 22.5245 17.9963 22.5246L17.9888 22.5266L17.9753 22.5316L17.954 22.5378L15.4351 23.2723L8.35002 25.3468V29.5681L6.10352e-05 32V2.32319L7.47287 0.131458L7.6543 0.0766975L7.65826 0.0755429L7.66206 0.0743883L7.76828 0.0437093L7.7978 0.0351324L7.82782 0.0293595C7.91113 0.0132835 8.01157 1.05897e-05 8.12142 0ZM16.0909 6.82443C14.9999 6.82443 13.9902 7.22101 13.1775 7.8944C13.0712 7.98324 12.9462 8.04816 12.8087 8.0755C12.7556 8.08575 12.7025 8.09265 12.6431 8.09266C12.5837 8.09266 12.5305 8.08576 12.4773 8.0755C12.2742 8.03448 12.096 7.91475 11.9678 7.74727C11.9522 7.71995 11.9335 7.69262 11.9116 7.66529V7.66183C11.8805 7.62193 11.8465 7.58494 11.81 7.55116L11.7564 7.43636C11.6089 7.31604 11.4264 7.24552 11.2286 7.24552C11.1692 7.24552 11.1098 7.24884 11.0536 7.26251C11.0223 7.26935 10.9941 7.27617 10.966 7.28643L8.54037 7.99749L8.44338 8.02487L7.67443 8.2505V18.8094L15.2765 16.5807C15.3109 16.567 15.3485 16.5568 15.3829 16.55C15.4361 16.5397 15.4923 16.5328 15.5485 16.5328C15.7798 16.5328 15.9876 16.6283 16.145 16.7855L16.2076 16.92C16.2304 16.9466 16.2521 16.9745 16.2721 17.0039C16.2753 17.0142 16.2816 17.0245 16.2878 17.0313C16.3034 17.0586 16.319 17.0859 16.3346 17.1133L16.3129 17.0654C16.4692 17.3047 16.7286 17.4587 17.0193 17.4587C17.0756 17.4587 17.1318 17.4517 17.1849 17.4415H17.1912C17.1974 17.4449 17.2037 17.4415 17.2069 17.438C17.2318 17.4312 17.2569 17.4244 17.2819 17.4176C18.3947 17.1134 19.3511 16.3783 20.0107 15.3905C20.0388 15.3426 20.0701 15.2983 20.0983 15.2504H20.1014C20.6422 14.3856 20.9611 13.3362 20.9611 12.2013C20.9611 12.0441 20.9548 11.8869 20.9423 11.7331C20.8297 10.2667 20.1796 8.96766 19.2137 8.0755C18.3666 7.29272 17.2787 6.82443 16.0909 6.82443Z" fill="white"/>
</mask>
<g mask="url(#mask0_2036_1758)">
<path d="M12.3299 9.20732L7.09398 -6.66963L34.267 -11.276L38.3404 23.6478L25.504 30.2349L19.0858 25.7591L15.4545 14.6117L12.3299 9.20732Z" fill="url(#paint1_linear_2036_1758)"/>
</g>
<defs>
<linearGradient id="paint0_linear_2036_1758" x1="27.8123" y1="7.15375" x2="3.73765" y2="29.0983" gradientUnits="userSpaceOnUse">
<stop stop-color="#5228FF"/>
<stop offset="1" stop-color="#AE18FF"/>
</linearGradient>
<linearGradient id="paint1_linear_2036_1758" x1="29.6391" y1="8.07948" x2="12.9046" y2="15.5837" gradientUnits="userSpaceOnUse">
<stop stop-color="#794DEC" stop-opacity="0"/>
<stop offset="1" stop-color="#280977"/>
</linearGradient>
</defs>
</svg>
