<svg width="40" height="40" viewBox="0 0 40 40" fill="none" xmlns="http://www.w3.org/2000/svg">
<circle cx="20" cy="20" r="19" stroke="#E3E3E3" stroke-width="2"/>
<path d="M9.7415 25V16.136L7.9015 16.568V15L10.6055 13.8H11.8695V25H9.7415ZM17.9931 25.192C17.2251 25.192 16.5318 25.0587 15.9131 24.792C15.2945 24.5147 14.7985 24.1253 14.4251 23.624C14.0625 23.1227 13.8811 22.5413 13.8811 21.88C13.8811 21.1973 14.0571 20.6 14.4091 20.088C14.7718 19.576 15.2465 19.208 15.8331 18.984C15.3211 18.76 14.9158 18.44 14.6171 18.024C14.3185 17.5973 14.1691 17.1227 14.1691 16.6C14.1691 16.0667 14.3131 15.576 14.6011 15.128C14.8891 14.6693 15.3158 14.3013 15.8811 14.024C16.4571 13.7467 17.1611 13.608 17.9931 13.608C18.8251 13.608 19.5238 13.7467 20.0891 14.024C20.6545 14.3013 21.0811 14.6693 21.3691 15.128C21.6571 15.576 21.8011 16.0667 21.8011 16.6C21.8011 17.112 21.6465 17.5867 21.3371 18.024C21.0385 18.4507 20.6385 18.7707 20.1371 18.984C20.7345 19.208 21.2091 19.576 21.5611 20.088C21.9131 20.6 22.0891 21.1973 22.0891 21.88C22.0891 22.5413 21.9078 23.1227 21.5451 23.624C21.1825 24.1253 20.6865 24.5147 20.0571 24.792C19.4385 25.0587 18.7505 25.192 17.9931 25.192ZM17.9931 18.376C18.5478 18.376 18.9851 18.232 19.3051 17.944C19.6251 17.656 19.7851 17.288 19.7851 16.84C19.7851 16.3493 19.6251 15.9653 19.3051 15.688C18.9958 15.4107 18.5585 15.272 17.9931 15.272C17.4171 15.272 16.9745 15.4107 16.6651 15.688C16.3558 15.9653 16.2011 16.3493 16.2011 16.84C16.2011 17.2987 16.3558 17.672 16.6651 17.96C16.9851 18.2373 17.4278 18.376 17.9931 18.376ZM17.9931 23.48C18.6758 23.48 19.1931 23.3147 19.5451 22.984C19.8971 22.6427 20.0731 22.216 20.0731 21.704C20.0731 21.1387 19.8865 20.696 19.5131 20.376C19.1505 20.056 18.6438 19.896 17.9931 19.896C17.3425 19.896 16.8251 20.056 16.4411 20.376C16.0678 20.696 15.8811 21.1387 15.8811 21.704C15.8811 22.216 16.0571 22.6427 16.4091 22.984C16.7718 23.3147 17.2998 23.48 17.9931 23.48ZM23.9116 21.224V19.512H26.9196V16.744H28.6636V19.512H31.6556V21.224H28.6636V23.992H26.9196V21.224H23.9116Z" fill="#E3E3E3"/>
</svg>
