<svg width="144" height="40" viewBox="0 0 144 40" fill="none" xmlns="http://www.w3.org/2000/svg">
<path fill-rule="evenodd" clip-rule="evenodd" d="M10.1518 0.000244141C10.7098 0.000244141 11.2001 0.243545 11.5451 0.615266L11.6121 0.691345L11.6833 0.77629L11.8099 1.04782C11.8338 1.08728 11.8578 1.12887 11.8804 1.17318C11.8929 1.19666 11.9018 1.21441 11.9043 1.21957C11.9085 1.22836 11.912 1.23606 11.9146 1.24163L12.3837 2.24137L12.403 2.28282L12.4179 2.32611C12.4193 2.33038 12.4244 2.3429 12.4371 2.36446L12.4674 2.41621C12.5207 2.48673 12.588 2.51188 12.6389 2.51188H12.6826L19.2817 0.845565L19.5654 0.773403L19.5697 0.772166L19.5742 0.771135C20.5193 0.541483 21.5045 0.422499 22.5127 0.422492C25.161 0.422492 27.6256 1.24366 29.7177 2.65641C30.1164 2.92447 30.5005 3.21572 30.8677 3.52399L31.0242 3.65718L31.0261 3.65883C31.4881 4.06038 31.9273 4.49094 32.3392 4.95465C33.5415 6.29585 34.506 7.87922 35.1834 9.62411L35.2481 9.79359L35.2485 9.79483C35.8081 11.2931 36.1577 12.9117 36.2493 14.6055C36.2704 14.9187 36.2788 15.2329 36.2788 15.5424C36.2788 15.7097 36.279 15.9006 36.2701 16.0904C36.2325 17.2435 36.0805 18.3602 35.8176 19.435L35.8178 19.4352C35.3969 21.1906 34.6907 22.8161 33.7612 24.262L33.7614 24.2622C33.6245 24.4754 33.4799 24.6882 33.3313 24.8958L33.3307 24.8966C32.0645 26.6613 30.4408 28.1171 28.5746 29.1215C27.5624 29.6659 26.484 30.0812 25.3488 30.3427C25.3408 30.3449 25.3309 30.3479 25.3199 30.3505C25.3066 30.3537 25.2914 30.3569 25.2748 30.36C25.2506 30.3653 25.231 30.3687 25.2173 30.3708C25.2146 30.3711 25.2119 30.3712 25.2092 30.3716C25.095 30.3921 24.9914 30.3973 24.9041 30.3973C24.1367 30.3973 23.4999 29.9379 23.185 29.3137L23.1526 29.2494L23.1483 29.2358L22.9163 28.7407L22.7603 28.4154C22.7423 28.3798 22.72 28.3492 22.6957 28.3243L22.5962 28.222L22.5665 28.1581C22.5656 28.1579 22.5648 28.1578 22.564 28.1577L22.5343 28.155C22.5235 28.155 22.5146 28.1551 22.5073 28.1554C22.5022 28.1556 22.4982 28.1558 22.4953 28.156L22.4861 28.1585L22.4692 28.1647L22.4426 28.1725L19.2938 29.0906L10.4376 31.6837V36.9603L0.00012207 40.0002V2.90423L9.34112 0.164566L9.56791 0.0961159L9.57286 0.0946726L9.5776 0.0932294L9.71038 0.0548807L9.74729 0.0441596L9.78481 0.0369434C9.88895 0.0168485 10.0145 0.000257378 10.1518 0.000244141ZM20.1136 8.53076C18.7499 8.53077 17.4878 9.02649 16.4719 9.86823C16.3391 9.97928 16.1828 10.0604 16.0109 10.0946C15.9445 10.1074 15.8781 10.116 15.8039 10.116C15.7297 10.116 15.6631 10.1074 15.5967 10.0946C15.3427 10.0433 15.12 9.89367 14.9598 9.68432C14.9403 9.65016 14.9168 9.616 14.8895 9.58185V9.57752C14.8506 9.52764 14.8081 9.48141 14.7625 9.43918L14.6955 9.29568C14.5112 9.14529 14.2831 9.05713 14.0357 9.05713C13.9615 9.05713 13.8873 9.06129 13.817 9.07837C13.7779 9.08691 13.7427 9.09544 13.7075 9.10826L10.6755 9.99709L10.5543 10.0313L9.59307 10.3134V23.5119L19.0957 20.7261C19.1387 20.709 19.1857 20.6963 19.2287 20.6877C19.2951 20.6749 19.3654 20.6663 19.4357 20.6663C19.7247 20.6663 19.9845 20.7856 20.1812 20.9821L20.2596 21.1502C20.2881 21.1835 20.3152 21.2183 20.3402 21.2551C20.3441 21.2679 20.352 21.2808 20.3598 21.2893C20.3793 21.3235 20.3988 21.3576 20.4183 21.3918L20.3911 21.332C20.5865 21.6311 20.9108 21.8235 21.2742 21.8235C21.3445 21.8235 21.4148 21.8149 21.4812 21.8021H21.489C21.4968 21.8064 21.5047 21.802 21.5086 21.7978C21.5398 21.7892 21.5711 21.7807 21.6024 21.7722C22.9934 21.3919 24.1889 20.4731 25.0134 19.2383C25.0485 19.1785 25.0877 19.123 25.1228 19.0633H25.1268C25.8027 17.9822 26.2013 16.6704 26.2013 15.2519C26.2013 15.0554 26.1935 14.8588 26.1778 14.6666C26.0372 12.8335 25.2245 11.2098 24.0171 10.0946C22.9582 9.11614 21.5984 8.53076 20.1136 8.53076Z" fill="url(#paint0_linear_2042_222)"/>
<mask id="mask0_2042_222" style="mask-type:alpha" maskUnits="userSpaceOnUse" x="0" y="0" width="37" height="40">
<path fill-rule="evenodd" clip-rule="evenodd" d="M10.1519 0C10.7099 0 11.2003 0.243301 11.5453 0.615022L11.6123 0.691101L11.6834 0.776045L11.81 1.04758C11.8339 1.08703 11.8579 1.12863 11.8805 1.17293C11.893 1.19641 11.9019 1.21416 11.9044 1.21932C11.9087 1.22812 11.9122 1.23581 11.9147 1.24138L12.3838 2.24113L12.4032 2.28257L12.418 2.32587C12.4195 2.33013 12.4245 2.34265 12.4372 2.36422L12.4675 2.41597C12.5208 2.48649 12.5882 2.51163 12.639 2.51163H12.6827L19.2818 0.84532L19.5655 0.773159L19.5698 0.771922L19.5744 0.770891C20.5194 0.541239 21.5046 0.422254 22.5128 0.422248C25.1611 0.422248 27.6257 1.24341 29.7178 2.65616C30.1165 2.92423 30.5006 3.21547 30.8678 3.52375L31.0243 3.65694L31.0262 3.65859C31.4883 4.06013 31.9275 4.49069 32.3393 4.9544C33.5417 6.29561 34.5061 7.87897 35.1835 9.62387L35.2482 9.79335L35.2487 9.79458C35.8082 11.2929 36.1578 12.9115 36.2494 14.6053C36.2705 14.9184 36.2789 15.2326 36.2789 15.5421C36.2789 15.7095 36.2792 15.9004 36.2703 16.0902C36.2326 17.2433 36.0806 18.3599 35.8177 19.4347L35.8179 19.4349C35.397 21.1903 34.6909 22.8159 33.7613 24.2617L33.7615 24.2619C33.6246 24.4752 33.48 24.6879 33.3314 24.8955L33.3308 24.8963C32.0646 26.661 30.441 28.1169 28.5748 29.1213C27.5625 29.6657 26.4841 30.081 25.3489 30.3425C25.3409 30.3446 25.331 30.3477 25.3201 30.3503C25.3067 30.3535 25.2916 30.3567 25.2749 30.3598C25.2507 30.365 25.2311 30.3685 25.2174 30.3705C25.2147 30.3709 25.212 30.371 25.2093 30.3713C25.0951 30.3919 24.9916 30.3971 24.9042 30.3971C24.1368 30.3971 23.5 29.9376 23.1851 29.3134L23.1527 29.2491L23.1484 29.2355L22.9165 28.7405L22.7604 28.4151C22.7424 28.3796 22.7201 28.349 22.6959 28.324L22.5963 28.2217L22.5666 28.1578C22.5658 28.1577 22.5649 28.1576 22.5641 28.1574L22.5344 28.1547C22.5236 28.1547 22.5147 28.1549 22.5074 28.1552C22.5023 28.1553 22.4983 28.1556 22.4955 28.1558L22.4862 28.1582L22.4693 28.1644L22.4427 28.1723L19.294 29.0904L10.4377 31.6834V36.9601L0.000244141 39.9999V2.90399L9.34124 0.164322L9.56803 0.0958717L9.57298 0.0944285L9.57772 0.0929853L9.7105 0.0546366L9.74741 0.0439154L9.78493 0.0366993C9.88907 0.0166043 10.0146 1.32371e-05 10.1519 0ZM20.1137 8.53052C18.7501 8.53053 17.4879 9.02625 16.472 9.86798C16.3392 9.97904 16.1829 10.0602 16.011 10.0944C15.9446 10.1072 15.8782 10.1158 15.804 10.1158C15.7298 10.1158 15.6632 10.1072 15.5968 10.0944C15.3429 10.0431 15.1201 9.89343 14.9599 9.68407C14.9404 9.64992 14.917 9.61576 14.8896 9.5816V9.57727C14.8507 9.5274 14.8082 9.48116 14.7626 9.43893L14.6956 9.29543C14.5113 9.14504 14.2832 9.05689 14.0359 9.05689C13.9616 9.05689 13.8874 9.06104 13.8171 9.07812C13.778 9.08667 13.7428 9.0952 13.7076 9.10802L10.6756 9.99684L10.5544 10.0311L9.59319 10.3131V23.5117L19.0958 20.7258C19.1388 20.7087 19.1858 20.696 19.2288 20.6875C19.2952 20.6747 19.3655 20.666 19.4358 20.666C19.7249 20.666 19.9846 20.7854 20.1813 20.9819L20.2597 21.1499C20.2882 21.1832 20.3153 21.2181 20.3403 21.2549C20.3442 21.2677 20.3521 21.2805 20.3599 21.2891C20.3794 21.3232 20.3989 21.3574 20.4184 21.3916L20.3912 21.3318C20.5866 21.6309 20.9109 21.8233 21.2743 21.8233C21.3446 21.8233 21.4149 21.8147 21.4813 21.8018H21.4891C21.4969 21.8061 21.5048 21.8018 21.5087 21.7975C21.5399 21.789 21.5713 21.7805 21.6025 21.772C22.9935 21.3917 24.189 20.4729 25.0135 19.2381C25.0486 19.1783 25.0878 19.1228 25.123 19.063H25.1269C25.8028 17.982 26.2015 16.6702 26.2015 15.2516C26.2015 15.0551 26.1936 14.8586 26.178 14.6663C26.0373 12.8333 25.2246 11.2096 24.0172 10.0944C22.9584 9.11589 21.5985 8.53052 20.1137 8.53052Z" fill="white"/>
</mask>
<g mask="url(#mask0_2042_222)">
<path d="M15.4127 11.5081L8.86773 -8.33805L42.8339 -14.096L47.9256 29.5587L31.8802 37.7925L23.8575 32.1977L19.3184 18.2636L15.4127 11.5081Z" fill="url(#paint1_linear_2042_222)"/>
</g>
<path fill-rule="evenodd" clip-rule="evenodd" d="M132.172 35.8241C126.76 35.8241 122.646 32.583 122.646 26.805C122.646 20.7736 127.154 15.0815 134.342 15.0815C139.753 15.0815 143.868 18.3225 143.868 24.0711C143.868 30.1298 139.33 35.8241 132.172 35.8241ZM132.425 31.2863C136.456 31.2863 137.696 26.6354 137.696 23.9035C137.696 20.8889 136.175 19.6193 134.089 19.6193C130.058 19.6193 128.818 24.2702 128.818 27.002C128.818 30.0167 130.339 31.2863 132.425 31.2863Z" fill="white"/>
<path d="M111.622 35.8218C106.211 35.8218 102.209 32.581 102.209 26.7758L102.213 26.7778C102.213 20.7757 106.611 15.0815 113.88 15.0815C119.009 15.0815 122.193 17.8722 122.56 22.5209C122.587 22.6906 122.503 22.7744 122.334 22.7744L117.063 22.7744C116.922 22.7744 116.809 22.6906 116.78 22.5209C116.526 20.4909 115.286 19.6172 113.539 19.6172C109.565 19.6172 108.381 24.2954 108.381 26.9728C108.381 30.0167 109.902 31.2843 111.989 31.2843C114.075 31.2843 115.146 30.0166 115.737 28.4098C115.793 28.2695 115.906 28.213 116.047 28.213L121.429 28.213C121.598 28.213 121.682 28.2968 121.655 28.4393C120.555 32.581 117.033 35.8218 111.622 35.8218Z" fill="white"/>
<path fill-rule="evenodd" clip-rule="evenodd" d="M96.3223 35.3149C96.182 35.3148 96.0396 35.2017 96.0396 35.0614L95.8133 31.2568H89.4445L87.471 35.118C87.4144 35.2584 87.3307 35.3148 87.1883 35.3149L80.9326 35.3149C80.7357 35.3148 80.6792 35.1746 80.763 35.0049L91.7029 15.7583C91.7595 15.6451 91.8727 15.5884 92.0131 15.5884L99.9593 15.5885C100.1 15.5885 100.242 15.7018 100.242 15.8421L102.017 35.0614C102.044 35.231 101.96 35.3148 101.79 35.3149H96.3223ZM95.0841 20.0698L91.8161 26.5223H95.5074L95.0841 20.0698Z" fill="white"/>
<path d="M71.3251 35.3171C71.1554 35.3171 71.0987 35.2039 71.1281 35.0342L73.552 25.3385L74.6791 19.9566L69.5212 19.9566C69.3516 19.9566 69.2678 19.8435 69.295 19.6759L70.1958 15.8147C70.223 15.6451 70.3363 15.5884 70.4787 15.5884L87.1338 15.5884C87.3035 15.5885 87.3871 15.7018 87.3599 15.8693L86.4591 19.7303C86.4319 19.9 86.3188 19.9566 86.1764 19.9566L80.962 19.9566L79.6085 25.3385L77.5513 35.0886L77.5534 35.0908C77.5261 35.2604 77.413 35.3171 77.2706 35.3171H71.3251Z" fill="white"/>
<path d="M58.8681 35.3171C58.6985 35.3171 58.6148 35.2038 58.6421 35.0342L60.9527 25.6507L63.0959 15.8147C63.1232 15.6451 63.2363 15.5885 63.3787 15.5884L69.1274 15.5884C69.2971 15.5885 69.3809 15.7018 69.3537 15.8693L66.9297 25.6487L64.8996 35.0886V35.0908C64.8723 35.2605 64.7593 35.3171 64.6168 35.3171H58.8681Z" fill="white"/>
<path fill-rule="evenodd" clip-rule="evenodd" d="M41.1426 35.3171C40.9729 35.3171 40.8891 35.2039 40.9163 35.0342L43.2564 25.7051L45.3702 15.8147C45.3975 15.6451 45.5106 15.5885 45.6509 15.5884L53.4883 15.5884C58.7299 15.5884 60.8438 18.0962 60.8438 21.5907C60.8438 26.0718 57.4625 29.229 51.4876 29.229L48.5839 29.229L47.2872 35.0908C47.2599 35.2605 47.1467 35.3171 47.0042 35.3171H41.1426ZM51.5715 24.9175C53.8549 24.9174 54.8396 23.6206 54.8396 21.9865C54.8395 20.8029 54.276 19.8727 52.4995 19.8727L50.7523 19.8727L49.5413 24.9175H51.5715Z" fill="white"/>
<path d="M46.3324 12.3598C46.2617 12.3598 46.2285 12.3248 46.2457 12.2489L47.1543 8.40352L48.0518 4.29554C48.0677 4.22552 48.1169 4.19051 48.1876 4.19051H51.9812C54.3022 4.19051 55.3652 5.11247 54.9518 6.93305C54.7 8.04173 53.9188 8.88784 52.7251 9.31964L53.9901 12.2314C54.0213 12.3014 53.9786 12.3598 53.8902 12.3598H51.1334C51.0804 12.3598 51.0399 12.3306 51.021 12.2839L50.1834 10.0841L49.981 9.65225H49.4391L48.873 12.2489C48.8557 12.3248 48.8065 12.3598 48.7417 12.3598H46.3324ZM49.836 7.87835H51.2616C51.6857 7.87835 52.2833 7.63327 52.4291 6.9914C52.5934 6.26784 52.2971 5.9644 51.6255 5.9644H50.2824L49.836 7.87835Z" fill="white"/>
<path d="M55.0815 12.3598C55.0109 12.3598 54.9776 12.3248 54.9948 12.2489L55.9243 8.41519L56.801 4.29554C56.8169 4.22552 56.866 4.19051 56.9367 4.19051H63.0631C63.1279 4.19051 63.1598 4.23135 63.1453 4.29554L62.7835 5.88855C62.7676 5.95857 62.7171 5.99942 62.6523 5.99942H59.0354L58.7415 7.1898H61.9814C62.0462 7.1898 62.0782 7.23064 62.0636 7.29483L61.7018 8.88784C61.6859 8.95786 61.6354 8.99871 61.5706 8.99871H58.3307L58.0044 10.5392H61.7156C61.7804 10.5392 61.8124 10.58 61.7978 10.6442L61.4334 12.2489C61.4175 12.3189 61.367 12.3598 61.3022 12.3598H55.0815Z" fill="white"/>
<path d="M62.739 12.3598C62.6684 12.3598 62.6351 12.3248 62.6523 12.2489L63.5833 8.35683L64.4584 4.29554C64.4743 4.22552 64.5235 4.19051 64.5942 4.19051H66.98C67.0448 4.19051 67.078 4.22552 67.0621 4.29554L66.0927 8.35683L65.256 12.2489C65.2388 12.3248 65.1896 12.3598 65.1248 12.3598H62.739Z" fill="white"/>
<path d="M69.2253 12.3598C69.1546 12.3598 69.1213 12.3248 69.1385 12.2489L70.0616 8.39185L70.9447 4.29554C70.9606 4.22552 71.0098 4.19051 71.0805 4.19051H74.2732C76.7002 4.19051 78.7158 5.27585 78.0082 8.39185C77.3244 11.4028 74.9275 12.3598 72.4416 12.3598H69.2253ZM72.1659 10.5392H72.9493C74.151 10.5392 74.9695 9.94401 75.3273 8.36851C75.7089 6.68797 75.0759 5.99942 73.9331 5.99942H73.1968L72.6288 8.34516L72.1659 10.5392Z" fill="white"/>
<path d="M82.1627 12.5698C79.4647 12.5698 78.344 10.7493 78.8979 8.31015C79.4863 5.71933 81.3917 3.98044 84.1133 3.98044C86.7877 3.98044 88.185 5.66097 87.5834 8.31015C87.0322 10.7376 84.8724 12.5698 82.1627 12.5698ZM82.6156 10.6792C83.7937 10.6792 84.566 9.76895 84.8972 8.31015C85.2312 6.83968 84.8974 5.87104 83.6839 5.87104C82.4822 5.87104 81.7218 6.78133 81.3746 8.31015C81.0459 9.75728 81.4374 10.6792 82.6156 10.6792Z" fill="white"/>
<defs>
<linearGradient id="paint0_linear_2042_222" x1="34.7655" y1="8.94242" x2="4.67217" y2="36.3731" gradientUnits="userSpaceOnUse">
<stop stop-color="#5228FF"/>
<stop offset="1" stop-color="#AE18FF"/>
</linearGradient>
<linearGradient id="paint1_linear_2042_222" x1="37.0491" y1="10.0983" x2="16.131" y2="19.4786" gradientUnits="userSpaceOnUse">
<stop stop-color="#794DEC" stop-opacity="0"/>
<stop offset="1" stop-color="#280977"/>
</linearGradient>
</defs>
</svg>
