<svg width="144" height="40" viewBox="0 0 144 40" fill="none" xmlns="http://www.w3.org/2000/svg">
<path fill-rule="evenodd" clip-rule="evenodd" d="M10.1517 0.000240326C10.7097 0.000240326 11.2 0.243541 11.545 0.615263L11.612 0.691341L11.6832 0.776286L11.8097 1.04782C11.8336 1.08727 11.8576 1.12887 11.8803 1.17317C11.8928 1.19665 11.9017 1.2144 11.9042 1.21956C11.9084 1.22836 11.9119 1.23606 11.9145 1.24162L12.3835 2.24137L12.4029 2.28281L12.4178 2.32611C12.4192 2.33037 12.4243 2.34289 12.4369 2.36446L12.4672 2.41621C12.5206 2.48673 12.5879 2.51187 12.6388 2.51187H12.6825L19.2816 0.845561L19.5653 0.773399L19.5696 0.772162L19.5741 0.771131C20.5192 0.54148 21.5044 0.422495 22.5125 0.422488C25.1609 0.422488 27.6254 1.24365 29.7175 2.6564C30.1163 2.92447 30.5004 3.21571 30.8676 3.52399L31.0241 3.65718L31.0259 3.65883C31.488 4.06037 31.9272 4.49093 32.3391 4.95464C33.5414 6.29585 34.5059 7.87921 35.1833 9.62411L35.248 9.79359L35.2484 9.79482C35.808 11.2931 36.1576 12.9117 36.2492 14.6055C36.2703 14.9187 36.2787 15.2329 36.2787 15.5424C36.2787 15.7097 36.2789 15.9006 36.27 16.0904C36.2324 17.2435 36.0804 18.3602 35.8175 19.435L35.8177 19.4352C35.3968 21.1906 34.6906 22.8161 33.7611 24.262L33.7613 24.2622C33.6243 24.4754 33.4797 24.6882 33.3312 24.8958L33.3306 24.8966C32.0644 26.6613 30.4407 28.1171 28.5745 29.1215C27.5622 29.6659 26.4839 30.0812 25.3487 30.3427C25.3407 30.3449 25.3308 30.3479 25.3198 30.3505C25.3064 30.3537 25.2913 30.3569 25.2747 30.36C25.2505 30.3653 25.2309 30.3687 25.2171 30.3707C25.2144 30.3711 25.2117 30.3712 25.2091 30.3716C25.0949 30.3921 24.9913 30.3973 24.904 30.3973C24.1365 30.3973 23.4998 29.9379 23.1849 29.3137L23.1525 29.2494L23.1482 29.2358L22.9162 28.7407L22.7601 28.4154C22.7422 28.3798 22.7199 28.3492 22.6956 28.3242L22.596 28.222L22.5663 28.1581C22.5655 28.1579 22.5647 28.1578 22.5639 28.1577L22.5342 28.155C22.5234 28.155 22.5144 28.1551 22.5072 28.1554C22.502 28.1556 22.4981 28.1558 22.4952 28.156L22.4859 28.1585L22.469 28.1647L22.4424 28.1725L19.2937 29.0906L10.4374 31.6837V36.9603L0 40.0002V2.90423L9.341 0.164562L9.56779 0.096112L9.57274 0.0946688L9.57748 0.0932256L9.71026 0.0548769L9.74716 0.0441558L9.78469 0.0369396C9.88883 0.0168447 10.0144 0.000253563 10.1517 0.000240326ZM20.1135 8.53076C18.7498 8.53077 17.4877 9.02649 16.4718 9.86822C16.339 9.97928 16.1827 10.0604 16.0108 10.0946C15.9444 10.1074 15.878 10.116 15.8038 10.116C15.7295 10.116 15.663 10.1074 15.5966 10.0946C15.3426 10.0433 15.1199 9.89367 14.9597 9.68431C14.9402 9.65016 14.9167 9.616 14.8894 9.58185V9.57752C14.8505 9.52764 14.808 9.4814 14.7624 9.43917L14.6954 9.29567C14.5111 9.14528 14.283 9.05713 14.0356 9.05713C13.9614 9.05713 13.8872 9.06128 13.8169 9.07836C13.7778 9.08691 13.7426 9.09544 13.7074 9.10826L10.6754 9.99708L10.5541 10.0313L9.59294 10.3134V23.5119L19.0956 20.7261C19.1386 20.709 19.1856 20.6963 19.2286 20.6877C19.295 20.6749 19.3653 20.6663 19.4356 20.6663C19.7246 20.6663 19.9844 20.7856 20.1811 20.9821L20.2594 21.1502C20.288 21.1835 20.3151 21.2183 20.3401 21.2551C20.344 21.2679 20.3518 21.2808 20.3596 21.2893C20.3792 21.3235 20.3987 21.3576 20.4182 21.3918L20.391 21.332C20.5864 21.6311 20.9107 21.8235 21.274 21.8235C21.3443 21.8235 21.4146 21.8149 21.481 21.8021H21.4889C21.4967 21.8064 21.5045 21.802 21.5085 21.7978C21.5397 21.7892 21.571 21.7807 21.6023 21.7722C22.9933 21.3919 24.1888 20.4731 25.0132 19.2383C25.0484 19.1785 25.0876 19.123 25.1227 19.0632H25.1266C25.8026 17.9822 26.2012 16.6704 26.2012 15.2519C26.2012 15.0554 26.1933 14.8588 26.1777 14.6666C26.0371 12.8335 25.2243 11.2098 24.017 10.0946C22.9581 9.11613 21.5983 8.53076 20.1135 8.53076Z" fill="url(#paint0_linear_2036_1979)"/>
<mask id="mask0_2036_1979" style="mask-type:alpha" maskUnits="userSpaceOnUse" x="0" y="0" width="37" height="40">
<path fill-rule="evenodd" clip-rule="evenodd" d="M10.1518 0C10.7098 0 11.2001 0.243301 11.5451 0.615022L11.6121 0.691101L11.6832 0.776045L11.8098 1.04758C11.8337 1.08703 11.8577 1.12863 11.8803 1.17293C11.8929 1.19641 11.9018 1.21416 11.9043 1.21932C11.9085 1.22812 11.912 1.23581 11.9146 1.24138L12.3836 2.24113L12.403 2.28257L12.4178 2.32587C12.4193 2.33013 12.4243 2.34265 12.437 2.36422L12.4673 2.41597C12.5207 2.48649 12.588 2.51163 12.6389 2.51163H12.6826L19.2816 0.84532L19.5653 0.773159L19.5697 0.771922L19.5742 0.770891C20.5193 0.541239 21.5045 0.422254 22.5126 0.422248C25.1609 0.422248 27.6255 1.24341 29.7176 2.65616C30.1163 2.92423 30.5005 3.21547 30.8677 3.52375L31.0242 3.65694L31.026 3.65859C31.4881 4.06013 31.9273 4.49069 32.3392 4.9544C33.5415 6.29561 34.506 7.87897 35.1834 9.62387L35.2481 9.79335L35.2485 9.79458C35.8081 11.2929 36.1577 12.9115 36.2493 14.6053C36.2703 14.9184 36.2788 15.2326 36.2788 15.5421C36.2788 15.7095 36.279 15.9004 36.2701 16.0902C36.2325 17.2433 36.0804 18.3599 35.8176 19.4347L35.8178 19.4349C35.3969 21.1903 34.6907 22.8159 33.7612 24.2617L33.7614 24.2619C33.6244 24.4752 33.4798 24.6879 33.3313 24.8955L33.3307 24.8963C32.0645 26.661 30.4408 28.1169 28.5746 29.1213C27.5623 29.6657 26.484 30.081 25.3488 30.3425C25.3407 30.3446 25.3309 30.3477 25.3199 30.3503C25.3065 30.3535 25.2914 30.3567 25.2748 30.3598C25.2506 30.365 25.231 30.3685 25.2172 30.3705C25.2145 30.3709 25.2118 30.371 25.2092 30.3713C25.095 30.3919 24.9914 30.3971 24.9041 30.3971C24.1366 30.3971 23.4999 29.9376 23.185 29.3134L23.1526 29.2491L23.1483 29.2355L22.9163 28.7405L22.7602 28.4151C22.7423 28.3796 22.72 28.349 22.6957 28.324L22.5961 28.2217L22.5664 28.1578C22.5656 28.1577 22.5648 28.1576 22.564 28.1574L22.5343 28.1547C22.5234 28.1547 22.5145 28.1549 22.5073 28.1552C22.5021 28.1553 22.4982 28.1556 22.4953 28.1558L22.486 28.1582L22.4691 28.1644L22.4425 28.1723L19.2938 29.0904L10.4375 31.6834V36.9601L9.15527e-05 39.9999V2.90399L9.34109 0.164322L9.56788 0.0958717L9.57283 0.0944285L9.57757 0.0929853L9.71035 0.0546366L9.74725 0.0439154L9.78478 0.0366993C9.88892 0.0166043 10.0145 1.32371e-05 10.1518 0ZM20.1136 8.53052C18.7499 8.53053 17.4878 9.02625 16.4719 9.86798C16.3391 9.97904 16.1828 10.0602 16.0109 10.0944C15.9445 10.1072 15.8781 10.1158 15.8039 10.1158C15.7296 10.1158 15.6631 10.1072 15.5967 10.0944C15.3427 10.0431 15.12 9.89343 14.9598 9.68407C14.9403 9.64992 14.9168 9.61576 14.8895 9.5816V9.57728C14.8506 9.5274 14.8081 9.48116 14.7625 9.43893L14.6955 9.29543C14.5112 9.14504 14.2831 9.05689 14.0357 9.05689C13.9615 9.05689 13.8873 9.06104 13.817 9.07812C13.7779 9.08667 13.7426 9.0952 13.7075 9.10802L10.6755 9.99684L10.5542 10.0311L9.59303 10.3131V23.5117L19.0957 20.7258C19.1387 20.7087 19.1857 20.696 19.2287 20.6875C19.2951 20.6747 19.3653 20.666 19.4357 20.666C19.7247 20.666 19.9845 20.7854 20.1812 20.9819L20.2595 21.1499C20.288 21.1832 20.3152 21.2181 20.3402 21.2549C20.3441 21.2677 20.3519 21.2805 20.3597 21.2891C20.3793 21.3232 20.3988 21.3574 20.4183 21.3916L20.3911 21.3318C20.5864 21.6309 20.9107 21.8233 21.2741 21.8233C21.3444 21.8233 21.4147 21.8147 21.4811 21.8018H21.489C21.4968 21.8061 21.5046 21.8018 21.5085 21.7975C21.5398 21.789 21.5711 21.7805 21.6024 21.7719C22.9933 21.3917 24.1889 20.4729 25.0133 19.2381C25.0485 19.1783 25.0877 19.1228 25.1228 19.063H25.1267C25.8027 17.982 26.2013 16.6702 26.2013 15.2516C26.2013 15.0551 26.1934 14.8586 26.1778 14.6663C26.0371 12.8333 25.2244 11.2096 24.0171 10.0944C22.9582 9.11589 21.5984 8.53052 20.1136 8.53052Z" fill="white"/>
</mask>
<g mask="url(#mask0_2036_1979)">
<path d="M15.4126 11.5081L8.86763 -8.33806L42.8338 -14.096L47.9256 29.5587L31.8801 37.7925L23.8574 32.1977L19.3183 18.2636L15.4126 11.5081Z" fill="url(#paint1_linear_2036_1979)"/>
</g>
<path fill-rule="evenodd" clip-rule="evenodd" d="M132.172 31C126.76 31 122.646 27.7589 122.646 21.981C122.646 15.9495 127.154 10.2574 134.342 10.2574C139.753 10.2575 143.868 13.4985 143.868 19.2471C143.868 25.3058 139.33 31 132.172 31ZM132.425 26.4623C136.456 26.4623 137.696 21.8114 137.696 19.0795C137.696 16.0648 136.175 14.7952 134.089 14.7952C130.058 14.7952 128.818 19.4461 128.818 22.178C128.818 25.1927 130.338 26.4623 132.425 26.4623Z" fill="white"/>
<path d="M111.622 30.9978C106.211 30.9978 102.209 27.7569 102.209 21.9517L102.213 21.9538C102.213 15.9517 106.611 10.2574 113.88 10.2574C119.009 10.2575 122.193 13.0481 122.56 17.6969C122.587 17.8665 122.503 17.9504 122.334 17.9504L117.063 17.9504C116.922 17.9504 116.809 17.8665 116.78 17.6969C116.526 15.6669 115.286 14.7932 113.539 14.7932C109.565 14.7932 108.381 19.4713 108.381 22.1487C108.381 25.1927 109.902 26.4602 111.989 26.4602C114.075 26.4602 115.146 25.1926 115.736 23.5858C115.793 23.4454 115.906 23.3889 116.047 23.3889L121.428 23.3889C121.598 23.3889 121.682 23.4728 121.655 23.6152C120.555 27.757 117.033 30.9978 111.622 30.9978Z" fill="white"/>
<path fill-rule="evenodd" clip-rule="evenodd" d="M96.3222 30.4908C96.1818 30.4908 96.0394 30.3777 96.0394 30.2373L95.8131 26.4328H89.4443L87.4709 30.294C87.4143 30.4343 87.3305 30.4908 87.1881 30.4908L80.9324 30.4908C80.7355 30.4908 80.679 30.3505 80.7628 30.1809L91.7028 10.9342C91.7593 10.8211 91.8726 10.7644 92.0129 10.7644L99.9591 10.7644C100.099 10.7644 100.242 10.8777 100.242 11.0181L102.016 30.2373C102.044 30.407 101.96 30.4908 101.79 30.4908H96.3222ZM95.084 15.2457L91.8159 21.6982H95.5073L95.084 15.2457Z" fill="white"/>
<path d="M71.3249 30.4931C71.1553 30.4931 71.0986 30.3798 71.1279 30.2101L73.5519 20.5145L74.679 15.1326L69.5211 15.1326C69.3514 15.1326 69.2676 15.0194 69.2948 14.8519L70.1956 10.9907C70.2229 10.821 70.3361 10.7644 70.4786 10.7644L87.1337 10.7644C87.3033 10.7644 87.387 10.8777 87.3598 11.0453L86.459 14.9063C86.4317 15.076 86.3187 15.1326 86.1762 15.1326L80.9619 15.1326L79.6083 20.5145L77.5512 30.2645L77.5532 30.2668C77.526 30.4364 77.4129 30.493 77.2705 30.4931H71.3249Z" fill="white"/>
<path d="M58.868 30.4931C58.6983 30.493 58.6147 30.3798 58.6419 30.2101L60.9525 20.8267L63.0958 10.9907C63.123 10.8211 63.2361 10.7644 63.3785 10.7644L69.1273 10.7644C69.2969 10.7644 69.3808 10.8777 69.3535 11.0453L66.9296 20.8246L64.8994 30.2645V30.2668C64.8722 30.4364 64.7591 30.4931 64.6167 30.4931H58.868Z" fill="white"/>
<path fill-rule="evenodd" clip-rule="evenodd" d="M41.1424 30.4931C40.9727 30.4931 40.8889 30.3798 40.9162 30.2101L43.2562 20.8811L45.37 10.9907C45.3973 10.8211 45.5104 10.7644 45.6507 10.7644L53.4881 10.7644C58.7298 10.7644 60.8437 13.2722 60.8437 16.7666C60.8437 21.2478 57.4623 24.4049 51.4874 24.4049L48.5837 24.4049L47.287 30.2668C47.2598 30.4364 47.1465 30.4931 47.0041 30.4931H41.1424ZM51.5713 20.0934C53.8548 20.0934 54.8394 18.7966 54.8394 17.1625C54.8394 15.9789 54.2758 15.0487 52.4993 15.0487L50.7522 15.0487L49.5412 20.0934H51.5713Z" fill="white"/>
<defs>
<linearGradient id="paint0_linear_2036_1979" x1="34.7654" y1="8.94241" x2="4.67205" y2="36.3731" gradientUnits="userSpaceOnUse">
<stop stop-color="#5228FF"/>
<stop offset="1" stop-color="#AE18FF"/>
</linearGradient>
<linearGradient id="paint1_linear_2036_1979" x1="37.049" y1="10.0983" x2="16.1309" y2="19.4786" gradientUnits="userSpaceOnUse">
<stop stop-color="#794DEC" stop-opacity="0"/>
<stop offset="1" stop-color="#280977"/>
</linearGradient>
</defs>
</svg>
